<?xml version="1.0" standalone="no"?>
<!DOCTYPE svg PUBLIC "-//W3C//DTD SVG 20010904//EN"
 "http://www.w3.org/TR/2001/REC-SVG-20010904/DTD/svg10.dtd">
<svg version="1.0" xmlns="http://www.w3.org/2000/svg"
 width="1200.000000pt" height="1200.000000pt" viewBox="0 0 1200.000000 1200.000000"
 preserveAspectRatio="xMidYMid meet">
<metadata>
Created by potrace 1.14, written by Peter Selinger 2001-2017
</metadata>
<g transform="translate(0.000000,1200.000000) scale(0.100000,-0.100000)"
fill="#000000" stroke="none">
<path d="M5758 11995 c-1 -2 -39 -6 -83 -9 -82 -6 -144 -13 -205 -22 -19 -3
-48 -7 -65 -9 -66 -7 -85 -11 -320 -61 -36 -7 -59 -13 -120 -30 -33 -9 -64
-17 -70 -18 -23 -5 -162 -49 -185 -59 -14 -6 -28 -11 -32 -13 -5 -1 -9 -2 -10
-4 -2 -1 -10 -3 -18 -5 -32 -8 -136 -48 -145 -56 -5 -5 -17 -9 -27 -9 -10 0
-18 -4 -18 -8 0 -5 -6 -9 -12 -9 -21 0 -292 -128 -360 -170 -21 -13 -38 -20
-38 -16 0 5 -4 3 -8 -3 -4 -6 -34 -26 -67 -44 -33 -19 -61 -37 -63 -42 -2 -4
-8 -8 -13 -8 -16 0 -230 -146 -344 -235 -219 -171 -425 -366 -590 -560 -22
-26 -45 -52 -50 -59 -6 -6 -26 -31 -45 -56 -19 -25 -38 -49 -43 -55 -32 -40
-121 -165 -133 -187 -8 -16 -19 -28 -25 -28 -6 0 -8 -4 -5 -9 4 -5 3 -11 -1
-13 -11 -4 -63 -86 -63 -98 0 -5 -4 -10 -8 -10 -5 0 -16 -15 -25 -32 -9 -18
-37 -69 -62 -113 -74 -131 -162 -315 -219 -460 -15 -38 -34 -85 -42 -103 -8
-18 -14 -37 -14 -43 0 -6 -6 -25 -14 -42 -14 -33 -59 -173 -62 -194 -1 -6 -7
-27 -13 -45 -6 -18 -12 -44 -15 -58 -2 -14 -14 -65 -26 -115 -12 -49 -24 -103
-27 -120 -7 -42 -11 -60 -13 -60 -1 0 -3 -16 -5 -35 -1 -19 -5 -48 -8 -65 -31
-170 -41 -321 -42 -605 0 -220 5 -318 20 -445 7 -57 16 -127 20 -150 2 -11 6
-40 9 -65 17 -120 90 -424 124 -520 3 -8 7 -22 8 -30 4 -25 77 -224 102 -280
9 -19 17 -39 18 -45 9 -48 195 -415 270 -533 19 -29 34 -57 34 -62 0 -6 5 -10
10 -10 6 0 10 -5 10 -10 0 -6 12 -28 28 -49 15 -21 34 -49 42 -62 19 -29 199
-269 214 -285 6 -7 33 -38 60 -71 98 -115 446 -453 467 -453 5 0 9 -4 9 -8 0
-5 21 -24 48 -42 26 -19 49 -37 52 -40 7 -10 193 -146 205 -151 6 -2 50 -30
98 -62 49 -32 105 -67 125 -78 20 -11 64 -36 97 -55 134 -76 495 -242 495
-227 0 3 6 1 13 -4 12 -10 132 -52 257 -91 172 -54 452 -114 630 -137 25 -3
63 -7 85 -10 66 -9 163 -15 280 -20 61 -2 112 -5 115 -6 3 0 14 -2 25 -3 17
-1 20 -9 22 -51 6 -187 24 -394 43 -505 5 -30 11 -71 14 -90 9 -54 16 -93 22
-120 3 -14 8 -34 10 -45 2 -11 6 -30 8 -42 22 -111 107 -384 169 -548 63 -167
230 -506 273 -555 7 -8 12 -17 12 -20 -3 -13 176 -282 239 -360 7 -8 35 -44
63 -80 29 -36 75 -92 103 -125 57 -66 367 -379 367 -370 0 3 16 -9 34 -27 19
-18 41 -37 48 -43 8 -5 36 -28 63 -50 135 -110 335 -246 510 -347 34 -20 369
-185 400 -197 11 -5 43 -18 70 -29 48 -20 145 -56 155 -58 3 0 18 -6 34 -13
16 -6 36 -13 45 -14 9 -1 21 -5 26 -9 6 -3 39 -14 75 -23 35 -9 82 -23 104
-30 23 -7 55 -16 71 -19 17 -3 48 -10 70 -15 22 -6 41 -10 43 -11 1 0 3 0 5
-1 9 -3 144 -29 177 -34 185 -29 338 -44 517 -50 121 -5 132 -4 131 12 0 10 1
879 1 1932 1 1053 0 1916 -2 1917 -2 2 -75 3 -162 3 -88 1 -207 1 -265 2 -58
1 -112 1 -120 0 -8 -1 -26 -1 -40 0 -14 0 -32 0 -40 0 -8 0 -62 0 -120 0 -58
1 -112 1 -120 1 -8 -1 -134 -1 -280 0 -146 0 -272 0 -280 -1 -8 0 -62 0 -120
0 -58 1 -112 1 -120 1 -8 -1 -170 -1 -360 0 -190 0 -352 0 -360 -1 -8 0 -62 0
-120 0 -58 1 -112 1 -120 1 -8 -1 -98 -1 -200 -1 -102 1 -192 1 -200 0 -8 0
-62 0 -120 0 -58 1 -112 1 -120 0 -29 -2 -84 0 -88 4 -2 2 -17 -1 -33 -5 -16
-5 -29 -5 -29 -1 0 4 -13 6 -30 3 -25 -4 -30 -1 -30 16 0 21 12 26 100 37 25
3 56 7 70 10 14 3 43 7 65 10 35 4 68 10 163 30 12 3 32 7 45 9 12 2 40 9 62
15 22 6 51 12 65 15 14 2 25 5 25 6 0 2 35 11 55 14 9 1 20 4 25 7 6 3 33 12
60 19 28 7 56 17 63 23 6 5 12 7 12 4 0 -6 183 58 204 71 6 3 18 7 26 9 14 2
176 70 217 91 10 5 59 29 108 54 126 62 218 111 232 124 6 6 25 17 42 24 17 7
31 16 31 21 0 5 5 9 10 9 9 0 179 112 281 185 42 30 141 108 159 125 9 8 35
30 57 48 53 43 224 203 277 261 23 24 64 68 93 98 28 29 49 53 47 53 -3 0 1 6
8 13 12 13 61 70 106 124 10 12 27 34 38 48 10 15 30 42 44 59 14 18 57 79 95
137 39 57 73 106 78 107 4 2 7 8 7 14 0 5 20 41 45 79 24 38 42 69 40 69 -3 0
11 25 31 56 20 31 37 62 38 70 1 7 5 17 9 20 11 11 87 172 87 183 0 6 4 11 8
11 5 0 9 6 10 13 0 6 25 71 55 142 29 72 55 133 55 138 5 19 8 30 15 47 9 21
58 172 62 190 1 8 8 35 15 60 7 25 14 56 17 69 2 14 6 28 9 33 3 5 7 19 10 32
2 13 13 66 24 119 10 52 22 117 25 144 4 26 8 55 10 63 4 13 8 43 20 140 19
146 27 579 13 745 -14 172 -19 218 -35 310 -2 17 -6 39 -8 50 -1 11 -6 36 -9
55 -4 19 -8 42 -10 50 -14 76 -21 108 -43 195 -14 55 -27 111 -29 124 -3 13
-10 34 -16 45 -6 12 -11 23 -10 26 2 5 -33 120 -45 150 -3 8 -7 20 -8 25 -6
21 -47 131 -63 165 -9 19 -17 41 -18 49 -2 7 -7 18 -13 24 -6 6 -11 17 -11 24
0 27 -193 403 -251 491 -16 24 -29 47 -29 53 0 5 -3 9 -7 9 -5 0 -24 27 -43
60 -19 33 -38 60 -42 60 -5 0 -8 4 -8 10 0 31 -291 387 -436 534 -73 73 -283
266 -290 266 -3 0 -15 9 -27 21 -12 11 -67 55 -122 96 -55 41 -108 81 -117 88
-9 7 -27 19 -40 26 -13 6 -25 15 -28 18 -9 12 -201 131 -211 131 -5 0 -9 5 -9
11 0 5 -4 8 -9 4 -5 -3 -13 -1 -16 5 -4 6 -28 21 -53 34 -26 13 -83 42 -127
65 -44 23 -127 63 -185 88 -145 63 -161 69 -195 81 -16 6 -39 14 -50 18 -11 4
-22 8 -25 9 -3 1 -18 7 -33 13 -16 7 -33 12 -38 12 -5 0 -17 4 -27 9 -15 8
-122 42 -147 47 -5 1 -37 9 -70 18 -33 9 -71 19 -84 22 -13 3 -51 12 -85 20
-34 8 -79 17 -101 20 -22 2 -47 7 -55 10 -8 4 -28 8 -45 10 -16 2 -43 5 -60 8
-38 6 -175 23 -195 25 -8 0 -35 3 -60 6 -49 6 -586 15 -592 10z m357 -2669
c82 -6 215 -32 265 -51 19 -7 37 -13 40 -13 3 0 18 -5 33 -11 16 -6 31 -11 35
-11 8 0 196 -93 202 -100 6 -7 100 -70 105 -70 7 0 82 -68 154 -140 70 -71
155 -179 193 -245 63 -110 136 -287 152 -370 9 -41 15 -75 21 -105 17 -87 22
-249 11 -354 -4 -38 -8 -72 -11 -75 -2 -4 -6 -27 -10 -51 -8 -53 -63 -231 -76
-244 -5 -6 -9 -18 -9 -28 0 -10 -5 -18 -10 -18 -6 0 -9 -3 -8 -7 6 -21 -135
-253 -153 -253 -5 0 -9 -5 -9 -10 0 -35 -192 -213 -315 -292 -74 -48 -235
-131 -235 -121 0 3 -6 0 -13 -6 -8 -6 -22 -12 -33 -14 -10 -2 -26 -7 -34 -10
-21 -9 -170 -46 -211 -53 -74 -13 -339 -10 -416 4 -87 16 -229 56 -283 79
-106 47 -153 71 -229 122 -47 31 -91 61 -100 66 -20 14 -180 172 -214 213 -59
70 -178 270 -192 322 -1 3 -7 19 -14 35 -7 17 -14 35 -15 40 -1 6 -12 42 -23
80 -38 128 -46 189 -47 350 -1 200 17 307 81 480 63 170 160 323 287 455 72
74 124 120 135 120 6 0 11 4 11 9 0 5 24 24 53 42 28 18 54 36 57 40 5 6 27
18 112 60 89 44 125 59 157 65 17 4 31 11 31 17 0 6 3 8 6 5 3 -4 20 -2 37 3
99 30 308 58 387 52 14 -1 57 -4 95 -7z"/>
</g>
</svg>
